# xmcd
#
# Track frame offsets: 
#        150
#        25478
#        41483
#        56335
#        84725
#        102165
#        125962
#        141114
#        164866
#        183918
#        216477
#
# Disc length: 3147 seconds
#
# Revision: 0
# Processed by: cddbd v1.5.2PL0 Copyright (c) Steve Scherf et al.
# Submitted via: ExactAudioCopy v0.99pb5
#
DISCID=a60c490b
DTITLE=Hundred Seventy Split - The world won't stop
DYEAR=2010
DGENRE=Blues
TTITLE0=The world won't stop
TTITLE1=Where the Blues began
TTITLE2=No Deal
TTITLE3=Poison
TTITLE4=The Smoke
TTITLE5=All my yesterdays
TTITLE6=Let the river flow
TTITLE7=A promise is forever
TTITLE8=Yes man
TTITLE9=Going home
TTITLE10=Wish you were at Woodstock
EXTD=
EXTT0=
EXTT1=
EXTT2=
EXTT3=
EXTT4=
EXTT5=
EXTT6=
EXTT7=
EXTT8=
EXTT9=
EXTT10=
PLAYORDER=
